# xmcd
#
# Track frame offsets:
#	150
#	12312
#	24992
#	38985
#	51662
#	60730
#	77735
#	89752
#	103852
#	116995
#	130927
#	147530
#	162462
#
# Disc length: 2332 seconds
#
# Revision: 1
# Processed by: cddbd v1.5.2PL0 Copyright (c) Steve Scherf et al.
# Submitted via: audiograbber 1.83.01
#
DISCID=c2091a0d
DTITLE=Jerry Butler and John Wade - Haulin' Grass
DYEAR=2009
DGENRE=Bluegrass
TTITLE0=Movin' On
TTITLE1=Forty Years of Lonesome
TTITLE2=Shorty Is Forty
TTITLE3=Backin' to Birmingham
TTITLE4=Legend of the Highway
TTITLE5=The Road I'm On
TTITLE6=Looking At the World Thru a Windshield
TTITLE7=Worth the Ride
TTITLE8=Eighteen Wheels
TTITLE9=Be Glad
TTITLE10=Back Home Again
TTITLE11=Daddy's Girl
TTITLE12=Backin' to Birmingham
EXTD=
EXTT0=
EXTT1=
EXTT2=
EXTT3=
EXTT4=
EXTT5=
EXTT6=
EXTT7=
EXTT8=
EXTT9=
EXTT10=
EXTT11=
EXTT12=
PLAYORDER=
